{
	"asset":{
		"generator":"Khronos glTF Blender I/O v4.1.63",
		"version":"2.0"
	},
	"extensionsUsed":[
		"KHR_materials_specular",
		"KHR_materials_ior"
	],
	"scene":0,
	"scenes":[
		{
			"name":"Scene",
			"nodes":[
				11
			]
		}
	],
	"nodes":[
		{
			"mesh":0,
			"name":"Cube.006_Material.002_0"
		},
		{
			"children":[
				0
			],
			"name":"Cube.006",
			"rotation":[
				-0.70710688829422,
				0,
				0,
				0.7071066498756409
			],
			"scale":[
				182.1392059326172,
				182.13917541503906,
				187.47451782226562
			],
			"translation":[
				0,
				340.8006286621094,
				0
			]
		},
		{
			"mesh":1,
			"name":"Cube.008_Material.001_0"
		},
		{
			"mesh":2,
			"name":"Cube.008_Material.002_0"
		},
		{
			"mesh":3,
			"name":"Cube.008_Material.003_0"
		},
		{
			"mesh":4,
			"name":"Cube.008_Material_0"
		},
		{
			"mesh":5,
			"name":"Cube.008_Material_0.001"
		},
		{
			"mesh":6,
			"name":"Cube.008_Material_0.002"
		},
		{
			"children":[
				2,
				3,
				4,
				5,
				6,
				7
			],
			"name":"Cube.008",
			"rotation":[
				-0.70710688829422,
				0,
				0,
				0.7071066498756409
			],
			"scale":[
				76.13638305664062,
				76.13636779785156,
				76.13636779785156
			],
			"translation":[
				8.62926959991455,
				495.1165466308594,
				0.002121996833011508
			]
		},
		{
			"children":[
				1,
				8
			],
			"name":"RootNode"
		},
		{
			"children":[
				9
			],
			"name":"0e08f53340b6444aa4ee6a0f87380576.fbx",
			"rotation":[
				0.70710688829422,
				0,
				0,
				0.7071066498756409
			],
			"scale":[
				0.009999999776482582,
				0.010000000707805157,
				0.010000000707805157
			]
		},
		{
			"children":[
				10
			],
			"name":"Sketchfab_model",
			"rotation":[
				-0.70710688829422,
				0,
				0,
				0.7071066498756409
			]
		}
	],
	"materials":[
		{
			"doubleSided":true,
			"extensions":{
				"KHR_materials_specular":{
					"specularColorFactor":[
						0.43733465671539307,
						0.43733465671539307,
						0.43733465671539307
					]
				},
				"KHR_materials_ior":{
					"ior":1000
				}
			},
			"name":"Material.002",
			"pbrMetallicRoughness":{
				"baseColorFactor":[
					0,
					0,
					0,
					1
				],
				"metallicFactor":0,
				"roughnessFactor":0
			}
		},
		{
			"doubleSided":true,
			"extensions":{
				"KHR_materials_specular":{
					"specularColorFactor":[
						0.0,
						0.0,
						0.0
					]
				},
				"KHR_materials_ior":{
					"ior":1000
				}
			},
			"name":"Material.004",
			"pbrMetallicRoughness":{
				"baseColorFactor":[
					0.7311429977416992,
					0.7784590125083923,
					0.800000011920929,
					1
				],
				"metallicFactor":0,
				"roughnessFactor":0
			}
		},
		{
			"doubleSided":true,
			"extensions":{
				"KHR_materials_specular":{
					"specularColorFactor":[
						0.0,
						0.0,
						0.0
					]
				},
				"KHR_materials_ior":{
					"ior":1000
				}
			},
			"name":"Material.003",
			"pbrMetallicRoughness":{
				"baseColorFactor":[
					0.7150170207023621,
					0.7150170207023621,
					0.7150170207023621,
					1
				],
				"metallicFactor":0,
				"roughnessFactor":0
			}
		},
		{
			"doubleSided":true,
			"extensions":{
				"KHR_materials_specular":{
					"specularColorFactor":[
						0.0,
						0.0,
						0.0
					]
				},
				"KHR_materials_ior":{
					"ior":1000
				}
			},
			"name":"Material.001",
			"pbrMetallicRoughness":{
				"baseColorFactor":[
					0.800000011920929,
					0.800000011920929,
					0.800000011920929,
					1
				],
				"metallicFactor":0,
				"roughnessFactor":0
			}
		}
	],
	"meshes":[
		{
			"name":"Cube.006_Material.002_0",
			"primitives":[
				{
					"attributes":{
						"POSITION":0,
						"NORMAL":1,
						"TEXCOORD_0":2
					},
					"indices":3,
					"material":0
				}
			]
		},
		{
			"name":"Cube.008_Material.001_0",
			"primitives":[
				{
					"attributes":{
						"POSITION":4,
						"NORMAL":5,
						"TEXCOORD_0":6
					},
					"indices":7,
					"material":1
				}
			]
		},
		{
			"name":"Cube.008_Material.002_0",
			"primitives":[
				{
					"attributes":{
						"POSITION":8,
						"NORMAL":9,
						"TEXCOORD_0":10
					},
					"indices":11,
					"material":0
				}
			]
		},
		{
			"name":"Cube.008_Material.003_0",
			"primitives":[
				{
					"attributes":{
						"POSITION":12,
						"NORMAL":13,
						"TEXCOORD_0":14
					},
					"indices":15,
					"material":2
				}
			]
		},
		{
			"name":"Cube.008_Material_0",
			"primitives":[
				{
					"attributes":{
						"POSITION":16,
						"NORMAL":17,
						"TEXCOORD_0":18
					},
					"indices":19,
					"material":3
				}
			]
		},
		{
			"name":"Cube.008_Material_0.001",
			"primitives":[
				{
					"attributes":{
						"POSITION":20,
						"NORMAL":21,
						"TEXCOORD_0":22
					},
					"indices":23,
					"material":3
				}
			]
		},
		{
			"name":"Cube.008_Material_0.002",
			"primitives":[
				{
					"attributes":{
						"POSITION":24,
						"NORMAL":25,
						"TEXCOORD_0":26
					},
					"indices":27,
					"material":3
				}
			]
		}
	],
	"accessors":[
		{
			"bufferView":0,
			"componentType":5126,
			"count":925,
			"max":[
				0.9029483795166016,
				0.27092623710632324,
				1.2343133687973022
			],
			"min":[
				0.8308065533638,
				-0.27092623710632324,
				0.7528960704803467
			],
			"type":"VEC3"
		},
		{
			"bufferView":1,
			"componentType":5126,
			"count":925,
			"type":"VEC3"
		},
		{
			"bufferView":2,
			"componentType":5126,
			"count":925,
			"type":"VEC2"
		},
		{
			"bufferView":3,
			"componentType":5123,
			"count":5184,
			"type":"SCALAR"
		},
		{
			"bufferView":4,
			"componentType":5126,
			"count":8543,
			"max":[
				2.5543365478515625,
				2.6517200469970703,
				6.917055606842041
			],
			"min":[
				-2.7710928916931152,
				-2.6516642570495605,
				1.6152881383895874
			],
			"type":"VEC3"
		},
		{
			"bufferView":5,
			"componentType":5126,
			"count":8543,
			"type":"VEC3"
		},
		{
			"bufferView":6,
			"componentType":5126,
			"count":8543,
			"type":"VEC2"
		},
		{
			"bufferView":7,
			"componentType":5123,
			"count":48384,
			"type":"SCALAR"
		},
		{
			"bufferView":8,
			"componentType":5126,
			"count":8945,
			"max":[
				3.1328511238098145,
				2.6525075435638428,
				6.2515716552734375
			],
			"min":[
				-1.0105359554290771,
				-2.652451753616333,
				2.0446391105651855
			],
			"type":"VEC3"
		},
		{
			"bufferView":9,
			"componentType":5126,
			"count":8945,
			"type":"VEC3"
		},
		{
			"bufferView":10,
			"componentType":5126,
			"count":8945,
			"type":"VEC2"
		},
		{
			"bufferView":11,
			"componentType":5123,
			"count":48384,
			"type":"SCALAR"
		},
		{
			"bufferView":12,
			"componentType":5126,
			"count":19862,
			"max":[
				0.48894214630126953,
				5.0948662757873535,
				0.8527792692184448
			],
			"min":[
				-0.715621292591095,
				-5.094809055328369,
				-6.027890205383301
			],
			"type":"VEC3"
		},
		{
			"bufferView":13,
			"componentType":5126,
			"count":19862,
			"type":"VEC3"
		},
		{
			"bufferView":14,
			"componentType":5126,
			"count":19862,
			"type":"VEC2"
		},
		{
			"bufferView":15,
			"componentType":5123,
			"count":101376,
			"type":"SCALAR"
		},
		{
			"bufferView":16,
			"componentType":5126,
			"count":66226,
			"max":[
				2.0581650733947754,
				2.1720669269561768,
				2.137752056121826
			],
			"min":[
				-2.2853782176971436,
				-4.030423641204834,
				-6.195431709289551
			],
			"type":"VEC3"
		},
		{
			"bufferView":17,
			"componentType":5126,
			"count":66226,
			"type":"VEC3"
		},
		{
			"bufferView":18,
			"componentType":5126,
			"count":66226,
			"type":"VEC2"
		},
		{
			"bufferView":19,
			"componentType":5125,
			"count":374514,
			"type":"SCALAR"
		},
		{
			"bufferView":20,
			"componentType":5126,
			"count":66610,
			"max":[
				2.058698892593384,
				4.08007287979126,
				2.1236212253570557
			],
			"min":[
				-2.2566215991973877,
				-4.080016136169434,
				-5.606878280639648
			],
			"type":"VEC3"
		},
		{
			"bufferView":21,
			"componentType":5126,
			"count":66610,
			"type":"VEC3"
		},
		{
			"bufferView":22,
			"componentType":5126,
			"count":66610,
			"type":"VEC2"
		},
		{
			"bufferView":23,
			"componentType":5125,
			"count":365958,
			"type":"SCALAR"
		},
		{
			"bufferView":24,
			"componentType":5126,
			"count":26150,
			"max":[
				0.6982056498527527,
				1.7049697637557983,
				-2.62625789642334
			],
			"min":[
				-0.9248849749565125,
				-1.8549354076385498,
				-6.767597675323486
			],
			"type":"VEC3"
		},
		{
			"bufferView":25,
			"componentType":5126,
			"count":26150,
			"type":"VEC3"
		},
		{
			"bufferView":26,
			"componentType":5126,
			"count":26150,
			"type":"VEC2"
		},
		{
			"bufferView":27,
			"componentType":5123,
			"count":31560,
			"type":"SCALAR"
		}
	],
	"bufferViews":[
		{
			"buffer":0,
			"byteLength":11100,
			"byteOffset":0,
			"target":34962
		},
		{
			"buffer":0,
			"byteLength":11100,
			"byteOffset":11100,
			"target":34962
		},
		{
			"buffer":0,
			"byteLength":7400,
			"byteOffset":22200,
			"target":34962
		},
		{
			"buffer":0,
			"byteLength":10368,
			"byteOffset":29600,
			"target":34963
		},
		{
			"buffer":0,
			"byteLength":102516,
			"byteOffset":39968,
			"target":34962
		},
		{
			"buffer":0,
			"byteLength":102516,
			"byteOffset":142484,
			"target":34962
		},
		{
			"buffer":0,
			"byteLength":68344,
			"byteOffset":245000,
			"target":34962
		},
		{
			"buffer":0,
			"byteLength":96768,
			"byteOffset":313344,
			"target":34963
		},
		{
			"buffer":0,
			"byteLength":107340,
			"byteOffset":410112,
			"target":34962
		},
		{
			"buffer":0,
			"byteLength":107340,
			"byteOffset":517452,
			"target":34962
		},
		{
			"buffer":0,
			"byteLength":71560,
			"byteOffset":624792,
			"target":34962
		},
		{
			"buffer":0,
			"byteLength":96768,
			"byteOffset":696352,
			"target":34963
		},
		{
			"buffer":0,
			"byteLength":238344,
			"byteOffset":793120,
			"target":34962
		},
		{
			"buffer":0,
			"byteLength":238344,
			"byteOffset":1031464,
			"target":34962
		},
		{
			"buffer":0,
			"byteLength":158896,
			"byteOffset":1269808,
			"target":34962
		},
		{
			"buffer":0,
			"byteLength":202752,
			"byteOffset":1428704,
			"target":34963
		},
		{
			"buffer":0,
			"byteLength":794712,
			"byteOffset":1631456,
			"target":34962
		},
		{
			"buffer":0,
			"byteLength":794712,
			"byteOffset":2426168,
			"target":34962
		},
		{
			"buffer":0,
			"byteLength":529808,
			"byteOffset":3220880,
			"target":34962
		},
		{
			"buffer":0,
			"byteLength":1498056,
			"byteOffset":3750688,
			"target":34963
		},
		{
			"buffer":0,
			"byteLength":799320,
			"byteOffset":5248744,
			"target":34962
		},
		{
			"buffer":0,
			"byteLength":799320,
			"byteOffset":6048064,
			"target":34962
		},
		{
			"buffer":0,
			"byteLength":532880,
			"byteOffset":6847384,
			"target":34962
		},
		{
			"buffer":0,
			"byteLength":1463832,
			"byteOffset":7380264,
			"target":34963
		},
		{
			"buffer":0,
			"byteLength":313800,
			"byteOffset":8844096,
			"target":34962
		},
		{
			"buffer":0,
			"byteLength":313800,
			"byteOffset":9157896,
			"target":34962
		},
		{
			"buffer":0,
			"byteLength":209200,
			"byteOffset":9471696,
			"target":34962
		},
		{
			"buffer":0,
			"byteLength":63120,
			"byteOffset":9680896,
			"target":34963
		}
	],
	"buffers":[
		{
			"byteLength":9744016,
			"uri":"scene.bin"
		}
	]
}
